<mxfile host="app.diagrams.net" modified="2023-10-04T21:26:22.989Z" agent="Mozilla/5.0 (Windows NT 10.0; Win64; x64; rv:109.0) Gecko/20100101 Firefox/118.0" etag="TCJvv6sKbJrez0UDqtkd" version="22.0.2" type="device">
  <diagram name="Pagina-1" id="QE00pTAzJzT0NNOLL0z-">
    <mxGraphModel dx="472" dy="855" grid="1" gridSize="10" guides="1" tooltips="1" connect="1" arrows="1" fold="1" page="1" pageScale="1" pageWidth="827" pageHeight="1169" math="0" shadow="0">
      <root>
        <mxCell id="0" />
        <mxCell id="1" parent="0" />
        <mxCell id="cJCT9FxYtXr-Mtmh-0XL-1" style="rounded=0;orthogonalLoop=1;jettySize=auto;html=1;" edge="1" parent="1" source="cJCT9FxYtXr-Mtmh-0XL-3" target="cJCT9FxYtXr-Mtmh-0XL-4">
          <mxGeometry relative="1" as="geometry">
            <Array as="points" />
          </mxGeometry>
        </mxCell>
        <mxCell id="cJCT9FxYtXr-Mtmh-0XL-12" value="t1_A_B" style="edgeLabel;html=1;align=center;verticalAlign=middle;resizable=0;points=[];" vertex="1" connectable="0" parent="cJCT9FxYtXr-Mtmh-0XL-1">
          <mxGeometry x="0.05" y="-2" relative="1" as="geometry">
            <mxPoint y="-12" as="offset" />
          </mxGeometry>
        </mxCell>
        <mxCell id="cJCT9FxYtXr-Mtmh-0XL-3" value="q0" style="ellipse;whiteSpace=wrap;html=1;aspect=fixed;" vertex="1" parent="1">
          <mxGeometry x="120" y="160" width="40" height="40" as="geometry" />
        </mxCell>
        <mxCell id="cJCT9FxYtXr-Mtmh-0XL-9" style="rounded=0;orthogonalLoop=1;jettySize=auto;html=1;" edge="1" parent="1" source="cJCT9FxYtXr-Mtmh-0XL-4" target="cJCT9FxYtXr-Mtmh-0XL-7">
          <mxGeometry relative="1" as="geometry">
            <Array as="points" />
          </mxGeometry>
        </mxCell>
        <mxCell id="cJCT9FxYtXr-Mtmh-0XL-13" value="t2_A_B" style="edgeLabel;html=1;align=center;verticalAlign=middle;resizable=0;points=[];" vertex="1" connectable="0" parent="cJCT9FxYtXr-Mtmh-0XL-9">
          <mxGeometry x="0.05" y="-2" relative="1" as="geometry">
            <mxPoint x="-2" y="-12" as="offset" />
          </mxGeometry>
        </mxCell>
        <mxCell id="cJCT9FxYtXr-Mtmh-0XL-4" value="q1" style="ellipse;whiteSpace=wrap;html=1;aspect=fixed;" vertex="1" parent="1">
          <mxGeometry x="240" y="160" width="40" height="40" as="geometry" />
        </mxCell>
        <mxCell id="cJCT9FxYtXr-Mtmh-0XL-10" style="rounded=0;orthogonalLoop=1;jettySize=auto;html=1;edgeStyle=orthogonalEdgeStyle;" edge="1" parent="1" source="cJCT9FxYtXr-Mtmh-0XL-7" target="cJCT9FxYtXr-Mtmh-0XL-4">
          <mxGeometry relative="1" as="geometry">
            <Array as="points">
              <mxPoint x="370" y="240" />
              <mxPoint x="260" y="240" />
            </Array>
          </mxGeometry>
        </mxCell>
        <mxCell id="cJCT9FxYtXr-Mtmh-0XL-14" value="t3_A_B" style="edgeLabel;html=1;align=center;verticalAlign=middle;resizable=0;points=[];" vertex="1" connectable="0" parent="cJCT9FxYtXr-Mtmh-0XL-10">
          <mxGeometry x="0.0866" y="-1" relative="1" as="geometry">
            <mxPoint x="12" y="-9" as="offset" />
          </mxGeometry>
        </mxCell>
        <mxCell id="cJCT9FxYtXr-Mtmh-0XL-11" style="edgeStyle=orthogonalEdgeStyle;rounded=0;orthogonalLoop=1;jettySize=auto;html=1;" edge="1" parent="1" source="cJCT9FxYtXr-Mtmh-0XL-7" target="cJCT9FxYtXr-Mtmh-0XL-3">
          <mxGeometry relative="1" as="geometry">
            <Array as="points">
              <mxPoint x="390" y="280" />
              <mxPoint x="140" y="280" />
            </Array>
          </mxGeometry>
        </mxCell>
        <mxCell id="cJCT9FxYtXr-Mtmh-0XL-15" value="t3_A_B" style="edgeLabel;html=1;align=center;verticalAlign=middle;resizable=0;points=[];" vertex="1" connectable="0" parent="cJCT9FxYtXr-Mtmh-0XL-11">
          <mxGeometry x="0.181" y="3" relative="1" as="geometry">
            <mxPoint x="51" y="-13" as="offset" />
          </mxGeometry>
        </mxCell>
        <mxCell id="cJCT9FxYtXr-Mtmh-0XL-7" value="q2" style="ellipse;whiteSpace=wrap;html=1;aspect=fixed;" vertex="1" parent="1">
          <mxGeometry x="360" y="160" width="40" height="40" as="geometry" />
        </mxCell>
      </root>
    </mxGraphModel>
  </diagram>
</mxfile>
